<?xml version="1.0" encoding="utf-8"?>
<!-- Generator: Adobe Illustrator 16.0.0, SVG Export Plug-In . SVG Version: 6.00 Build 0)  -->
<!DOCTYPE svg PUBLIC "-//W3C//DTD SVG 1.1//EN" "http://www.w3.org/Graphics/SVG/1.1/DTD/svg11.dtd">
<svg version="1.1" id="Layer_1" xmlns="http://www.w3.org/2000/svg" xmlns:xlink="http://www.w3.org/1999/xlink" x="0px" y="0px"
	 width="234.646px" height="56.036px" viewBox="34.512 37.499 234.646 56.036"
	 enable-background="new 34.512 37.499 234.646 56.036" xml:space="preserve">
<g enable-background="new    ">
	<path fill="#FFFFFF" d="M49.321,67.464l23.082,12.792c1.159,0.649,1.929,1.229,2.312,1.738c0.383,0.51,0.574,1.159,0.574,1.946
		c0,0.997-0.359,1.86-1.078,2.59c-0.719,0.73-1.553,1.096-2.503,1.096c-0.625,0-1.564-0.348-2.815-1.043L34.512,67.464
		l34.379-19.119c1.251-0.672,2.178-1.008,2.781-1.008c0.974,0,1.819,0.359,2.538,1.077c0.718,0.719,1.078,1.576,1.078,2.572
		c0,0.789-0.191,1.438-0.574,1.947c-0.382,0.51-1.153,1.09-2.312,1.738L49.321,67.464z"/>
</g>
<g enable-background="new    ">
	<path fill="#FFFFFF" d="M220.355,43.617L197.516,92.84c-0.579,1.229-1.101,2.027-1.564,2.398c-0.603,0.486-1.333,0.73-2.19,0.73
		c-0.973,0-1.812-0.348-2.52-1.043s-1.061-1.483-1.061-2.364c0-0.625,0.278-1.541,0.834-2.746l22.908-49.188
		c0.579-1.229,1.09-2.027,1.529-2.398c0.626-0.487,1.355-0.73,2.19-0.73c0.974,0,1.808,0.343,2.503,1.025
		c0.695,0.685,1.043,1.466,1.043,2.347C221.189,41.497,220.911,42.413,220.355,43.617z"/>
</g>
<g enable-background="new    ">
	<path fill="#FFFFFF" d="M254.349,67.464l-23.082-12.792c-1.158-0.648-1.929-1.229-2.311-1.738c-0.383-0.51-0.574-1.158-0.574-1.947
		c0-0.996,0.359-1.854,1.078-2.572c0.718-0.718,1.564-1.077,2.537-1.077c0.603,0,1.529,0.336,2.781,1.008l34.379,19.119
		l-34.379,19.119c-1.252,0.695-2.179,1.043-2.781,1.043c-0.973,0-1.819-0.359-2.537-1.078c-0.719-0.718-1.078-1.587-1.078-2.607
		c0-0.787,0.191-1.437,0.574-1.946c0.382-0.51,1.152-1.089,2.311-1.738L254.349,67.464z"/>
</g>
<path fill="#FFFFFF" d="M85.779,38.043v55.492h93.811V38.043H85.779z M173.93,87.849H91.08V81.03h82.851L173.93,87.849
	L173.93,87.849z M174.291,75.413H91.437v-6.814h82.854V75.413z M174.291,62.979h-41.606v-6.812h41.606V62.979z M174.291,50.548
	h-41.606V43.73h41.606V50.548z"/>
</svg>
