<?xml version="1.0" encoding="utf-8"?>
<!-- Generator: Adobe Illustrator 16.0.0, SVG Export Plug-In . SVG Version: 6.00 Build 0)  -->
<!DOCTYPE svg PUBLIC "-//W3C//DTD SVG 1.1//EN" "http://www.w3.org/Graphics/SVG/1.1/DTD/svg11.dtd">
<svg version="1.1" xmlns="http://www.w3.org/2000/svg" xmlns:xlink="http://www.w3.org/1999/xlink" x="0px" y="0px" width="74px"
	 height="42.625px" viewBox="0 0 74 42.625" enable-background="new 0 0 74 42.625" xml:space="preserve">
<g id="Layer_1" display="none">
	<g display="inline">
		<g>
			<g>
				<g>
					<path d="M24.062,2.191c-0.528,0-1,0.236-1.317,0.609c0,0-6.589,6.906-6.825,7.955c-0.116,0.52,13.852-1.153,13.852,1.73
						L29.8,24.153l42.104-0.566V7.523c0,0,0.324-5.341-5.184-5.341L24.062,2.191z"/>
				</g>
				<g>
					<circle cx="15.777" cy="33.733" r="6.583"/>
					<circle fill="#FFFFFF" cx="15.777" cy="33.734" r="2.854"/>
				</g>
				<g>
					<circle cx="54.956" cy="33.625" r="6.583"/>
					<circle fill="#FFFFFF" cx="54.956" cy="33.625" r="2.854"/>
				</g>
				<g>
					<g>
						<path d="M4.399,27.28l-0.003-3.686c0-1.479,0.939-2.738,2.254-3.213l3.188-1.075l6.364-9.193
							c0.316-0.374,0.79-0.611,1.317-0.611L27.598,9.5c1.642,0,2.973,1.331,2.973,2.973L30.56,23.225h41.358v7.771
							c0,1.131-0.918,2.049-2.049,2.049h-6.254c-0.305-4.538-4.044-8.137-8.659-8.137s-8.354,3.599-8.659,8.137H24.406
							c-0.333-4.512-4.058-8.08-8.653-8.08c-4.597,0-8.32,3.568-8.653,8.08H4.474c-1.132,0-2.05-0.918-2.05-2.049L2.422,27.28H4.399
							z"/>
					</g>
					<path fill="#FFFFFF" d="M24.589,21.291c0.954,0,1.728-0.773,1.728-1.729l0.006-5.564c0-0.955-0.773-1.729-1.729-1.729
						l-5.858,0.002c-0.307,0-0.582,0.137-0.766,0.354l-4.954,7.143c-0.118,0.161-0.188,0.359-0.188,0.574
						c0,0.532,0.432,0.964,0.964,0.964L24.589,21.291z"/>
				</g>
			</g>
		</g>
		<circle fill="#FFFFFF" cx="41.439" cy="14.879" r="8.811"/>
		<g>
			<g>
				<g>
					<path d="M40.808,13.014c0,0.376-0.343,0.779-0.788,0.779v6.36c0,0.902-1.23,0.902-1.23,0v-6.36
						c-0.434,0-0.811-0.334-0.811-0.834v-3.5c0-0.305,0.439-0.316,0.439,0.012v2.588h0.369V9.447c0-0.279,0.424-0.297,0.424,0.012
						v2.6h0.381V9.451c0-0.293,0.411-0.305,0.411,0.012v2.596h0.375V9.451c0-0.29,0.43-0.301,0.43,0.012V13.014z"/>
				</g>
				<g>
					<path d="M44.609,10.273v9.876c0,0.883-1.233,0.87-1.233,0V16.23H42.72v-5.957C42.72,8.887,44.609,8.887,44.609,10.273z"/>
				</g>
			</g>
		</g>
	</g>
</g>
<g id="Layer_2">
	<g>
		<path fill="#FFFFFF" d="M27.665,20.118c0,1.146-0.928,2.074-2.073,2.074l-12.957,0.018c-0.639,0-1.157-0.517-1.157-1.156
			c0-0.258,0.085-0.496,0.227-0.689l5.945-8.571c0.22-0.26,0.551-0.424,0.918-0.424l7.03-0.002c1.146,0,2.074,0.928,2.074,2.074
			L27.665,20.118z"/>
		<circle fill="#FFFFFF" cx="15.777" cy="33.733" r="3.425"/>
		<circle fill="#FFFFFF" cx="54.956" cy="33.625" r="3.425"/>
		<circle fill="#FFFFFF" cx="41.439" cy="14.878" r="10.573"/>
	</g>
	<g>
		<g>
			<path fill="#FBB03B" d="M15.777,41.317c-4.181,0-7.583-3.402-7.583-7.584s3.402-7.583,7.583-7.583s7.583,3.401,7.583,7.583
				S19.958,41.317,15.777,41.317z M15.777,31.88c-1.022,0-1.854,0.831-1.854,1.854s0.832,1.854,1.854,1.854s1.854-0.832,1.854-1.854
				S16.8,31.88,15.777,31.88z"/>
			<path fill="#FFFFFF" d="M15.777,27.15c3.636,0,6.583,2.948,6.583,6.583c0,3.637-2.947,6.584-6.583,6.584
				s-6.583-2.947-6.583-6.584C9.194,30.099,12.142,27.15,15.777,27.15 M15.777,36.588c1.576,0,2.854-1.277,2.854-2.854
				c0-1.575-1.278-2.854-2.854-2.854s-2.854,1.278-2.854,2.854C12.923,35.311,14.201,36.588,15.777,36.588 M15.777,25.15
				c-4.733,0-8.583,3.851-8.583,8.583c0,4.733,3.85,8.584,8.583,8.584s8.583-3.851,8.583-8.584
				C24.36,29.001,20.51,25.15,15.777,25.15L15.777,25.15z M15.777,34.588c-0.471,0-0.854-0.383-0.854-0.854
				c0-0.471,0.383-0.854,0.854-0.854s0.854,0.383,0.854,0.854C16.632,34.205,16.249,34.588,15.777,34.588L15.777,34.588z"/>
		</g>
		<g>
			<path fill="#FBB03B" d="M54.956,41.209c-4.182,0-7.583-3.402-7.583-7.584s3.401-7.584,7.583-7.584s7.583,3.402,7.583,7.584
				S59.138,41.209,54.956,41.209z M54.956,31.771c-1.022,0-1.854,0.832-1.854,1.854s0.832,1.854,1.854,1.854
				s1.854-0.832,1.854-1.854S55.979,31.771,54.956,31.771z"/>
			<path fill="#FFFFFF" d="M54.956,27.041c3.636,0,6.583,2.948,6.583,6.584s-2.947,6.584-6.583,6.584s-6.583-2.948-6.583-6.584
				S51.32,27.041,54.956,27.041 M54.956,36.479c1.576,0,2.854-1.278,2.854-2.854s-1.278-2.854-2.854-2.854
				c-1.577,0-2.854,1.278-2.854,2.854S53.379,36.479,54.956,36.479 M54.956,25.041c-4.732,0-8.583,3.851-8.583,8.584
				s3.851,8.584,8.583,8.584s8.583-3.851,8.583-8.584S59.688,25.041,54.956,25.041L54.956,25.041z M54.956,34.479
				c-0.472,0-0.854-0.384-0.854-0.854s0.383-0.854,0.854-0.854s0.854,0.384,0.854,0.854S55.428,34.479,54.956,34.479L54.956,34.479z
				"/>
		</g>
		<g>
			<path fill="#FBB03B" d="M62.674,34.625l-0.057-0.939c-0.263-4.305-3.341-7.197-7.661-7.197s-7.398,2.893-7.661,7.197
				l-0.057,0.939H23.471l-0.062-0.934c-0.285-4.274-3.361-7.146-7.656-7.146s-7.371,2.872-7.656,7.146l-0.062,0.934H4.474
				c-1.653,0-3.05-1.45-3.05-3.167l-0.002-4.833h1.977l-0.003-2.857c0-1.899,1.225-3.718,2.913-4.328l2.889-0.978l6.168-8.924
				c0.158-0.193,0.284-0.322,0.409-0.427c1.723-2.254,6.042-6.804,6.228-7c0.491-0.579,1.223-0.92,2.023-0.92l42.62-0.009
				c1.94,0,3.471,0.588,4.547,1.749c1.744,1.88,1.565,4.554,1.557,4.667l0.003,23.397c0,1.717-1.184,3.63-2.881,3.63H62.674z
				 M41.439,7.067c-4.307,0-7.811,3.504-7.811,7.812c0,4.307,3.504,7.811,7.811,7.811s7.811-3.504,7.811-7.811
				C49.25,10.572,45.746,7.067,41.439,7.067z M18.736,13.271l-4.898,7.066l10.75-0.046c0.403,0,0.729-0.327,0.729-0.729l0.006-5.565
				c0-0.401-0.327-0.728-0.729-0.728L18.736,13.271z"/>
			<path fill="#FFFFFF" d="M66.644,2.183c5.508,0,5.106,5.341,5.106,5.341v15.602v0.462v7.408c0,1.131-0.75,2.63-1.881,2.63h-6.254
				c-0.305-5-4.044-8.137-8.659-8.137s-8.354,3.137-8.659,8.137H24.406c-0.333-5-4.058-8.08-8.653-8.08
				c-4.597,0-8.32,3.08-8.653,8.08H4.474c-1.132,0-2.05-1.036-2.05-2.167l-0.002-3.833h1.978l-0.005-3.858
				c0-1.479,0.938-2.912,2.252-3.386l3.184-1.077l6.356-9.197c0.093-0.11,0.188-0.204,0.305-0.289
				c1.65-2.193,6.234-7.018,6.234-7.018c0.317-0.373,0.77-0.609,1.298-0.609L66.644,2.183 M41.439,23.689
				c4.865,0,8.811-3.945,8.811-8.811c0-4.867-3.945-8.812-8.811-8.812c-4.867,0-8.811,3.944-8.811,8.812
				C32.629,19.744,36.572,23.689,41.439,23.689 M13.791,21.306l10.798-0.015c0.954,0,1.728-0.773,1.728-1.729l0.006-5.564
				c0-0.955-0.773-1.729-1.729-1.729l-5.858,0.002c-0.307,0-0.582,0.137-0.766,0.354l-4.954,7.143
				c-0.118,0.161-0.188,0.359-0.188,0.574C12.827,20.874,13.259,21.306,13.791,21.306 M66.644,0.183L66.644,0.183l-42.62,0.009
				c-1.062,0-2.071,0.46-2.779,1.265c-0.432,0.455-4.462,4.715-6.202,6.964c-0.133,0.119-0.26,0.25-0.384,0.396L14.596,8.89
				l-0.055,0.08l-5.979,8.652l-2.556,0.864c-2.142,0.773-3.611,2.939-3.611,5.281l0.002,1.858H0.421l0.001,2.001l0.002,3.833
				c0,2.258,1.854,4.166,4.05,4.166H7.1h1.871l0.125-1.867c0.248-3.716,2.923-6.213,6.658-6.213s6.41,2.497,6.658,6.213l0.125,1.867
				h1.871h21.891h1.882l0.114-1.878c0.229-3.744,2.906-6.259,6.663-6.259s6.435,2.515,6.663,6.259l0.114,1.878h1.882h6.254
				c2.321,0,3.881-2.394,3.881-4.63v-7.408v-0.462V7.582c0.03-0.601,0.052-3.306-1.826-5.33C71.048,1.308,69.421,0.183,66.644,0.183
				L66.644,0.183z M41.439,21.689c-3.755,0-6.811-3.055-6.811-6.811c0-3.756,3.055-6.812,6.811-6.812
				c3.756,0,6.811,3.056,6.811,6.812C48.25,18.634,45.195,21.689,41.439,21.689L41.439,21.689z M19.262,14.271l5.06-0.002
				l-0.005,5.022l-8.545,0.011L19.262,14.271L19.262,14.271z"/>
		</g>
		<g>
			<g>
				<g>
					<g>
						<path fill="#FBB03B" d="M39.404,21.83c-0.921,0-1.615-0.721-1.615-1.677v-5.657c-0.492-0.325-0.811-0.886-0.811-1.538v-3.5
							c0-0.69,0.536-1.231,1.22-1.231c0.144,0,0.28,0.024,0.407,0.068c0.124-0.041,0.256-0.063,0.396-0.063
							c0.138,0,0.27,0.022,0.393,0.064c0.126-0.044,0.262-0.068,0.404-0.068c0.14,0,0.274,0.023,0.398,0.066
							c0.124-0.042,0.257-0.064,0.396-0.064c0.681,0,1.215,0.541,1.215,1.232v3.551c0,0.599-0.316,1.141-0.788,1.465v5.675
							C41.02,21.109,40.325,21.83,39.404,21.83z"/>
						<path fill="#FFFFFF" d="M38.198,9.228c0.11,0,0.22,0.079,0.22,0.243v2.588h0.369V9.447c0-0.14,0.107-0.215,0.214-0.215
							c0.105,0,0.21,0.073,0.21,0.227v2.6h0.381V9.451c0-0.146,0.103-0.223,0.205-0.223c0.104,0,0.206,0.076,0.206,0.234v2.596
							h0.375V9.451c0-0.145,0.107-0.22,0.215-0.22s0.215,0.076,0.215,0.232v3.551c0,0.376-0.343,0.779-0.788,0.779v6.36
							c0,0.451-0.308,0.677-0.615,0.677s-0.615-0.226-0.615-0.677v-6.36c-0.434,0-0.811-0.334-0.811-0.834v-3.5
							C37.979,9.307,38.088,9.228,38.198,9.228 M38.198,7.228c-1.224,0-2.22,1.001-2.22,2.231v3.5c0,0.792,0.307,1.5,0.811,2.009
							v5.185c0,1.501,1.149,2.677,2.615,2.677c1.467,0,2.615-1.176,2.615-2.677v-5.225c0.485-0.502,0.788-1.181,0.788-1.915V9.463
							c0-1.251-0.973-2.232-2.215-2.232c-0.132,0-0.262,0.012-0.388,0.034c-0.132-0.024-0.268-0.037-0.408-0.037
							c-0.138,0-0.273,0.013-0.404,0.038c-0.127-0.022-0.258-0.034-0.392-0.034c-0.131,0-0.259,0.012-0.384,0.033
							C38.482,7.241,38.342,7.228,38.198,7.228L38.198,7.228z"/>
					</g>
				</g>
				<g>
					<g>
						<path fill="#FBB03B" d="M43.996,21.807c-0.908,0-1.62-0.728-1.62-1.657V17.23H41.72v-6.957c0-1.325,1.002-2.04,1.945-2.04
							c0.942,0,1.944,0.715,1.944,2.04v9.876C45.609,21.094,44.916,21.807,43.996,21.807z"/>
						<path fill="#FFFFFF" d="M43.664,9.233c0.473,0,0.945,0.347,0.945,1.04v9.876c0,0.44-0.307,0.657-0.613,0.657
							c-0.31,0-0.62-0.221-0.62-0.657V16.23H42.72v-5.957C42.72,9.58,43.192,9.233,43.664,9.233 M43.664,7.233
							c-1.65,0-2.944,1.335-2.944,3.04v5.957v2h0.656v1.919c0,1.49,1.151,2.657,2.62,2.657c1.465,0,2.613-1.167,2.613-2.657v-9.876
							C46.609,8.569,45.315,7.233,43.664,7.233L43.664,7.233z"/>
					</g>
				</g>
			</g>
		</g>
	</g>
</g>
</svg>
